<?xml version="1.0" encoding="utf-8"?>
<!-- Generator: Adobe Illustrator 14.0.0, SVG Export Plug-In . SVG Version: 6.00 Build 43363)  -->
<!DOCTYPE svg PUBLIC "-//W3C//DTD SVG 1.1//EN" "http://www.w3.org/Graphics/SVG/1.1/DTD/svg11.dtd">
<svg version="1.1" id="Layer_1" xmlns="http://www.w3.org/2000/svg" xmlns:xlink="http://www.w3.org/1999/xlink" x="0px" y="0px"
	 width="72px" height="72px" viewBox="0 0 72 72" enable-background="new 0 0 72 72" xml:space="preserve">
<g>
	<path fill="#E60000" d="M11.435,18.496L10.1,23.407H5.614l5.85-19.138h5.651l5.963,19.138h-4.657l-1.477-4.912H11.435z
		 M16.291,15.258l-1.193-4.061c-0.312-1.136-0.653-2.583-0.937-3.691h-0.086c-0.256,1.136-0.568,2.583-0.852,3.691l-1.165,4.061
		H16.291z"/>
	<path fill="#E60000" d="M38.158,18.949c0,1.818,0.057,3.294,0.112,4.458h-3.747l-0.199-1.959h-0.085
		c-0.539,0.851-1.846,2.271-4.344,2.271c-2.84,0-4.885-1.761-4.885-6.048V9.521h4.316v7.468c0,2.016,0.655,3.236,2.187,3.236
		c1.192,0,1.902-0.823,2.158-1.504c0.113-0.256,0.17-0.568,0.17-0.938V9.521h4.316V18.949L38.158,18.949z"/>
	<path fill="#E60000" d="M46.448,5.745v3.776h3.097v3.18h-3.097v5.054c0,1.675,0.427,2.442,1.703,2.442
		c0.598,0,0.88-0.028,1.278-0.114l0.028,3.266c-0.539,0.198-1.589,0.369-2.783,0.369c-1.391,0-2.556-0.483-3.265-1.193
		c-0.795-0.823-1.191-2.158-1.191-4.118v-5.707h-1.847V9.521h1.847V6.91L46.448,5.745z"/>
	<path fill="#E60000" d="M58.293,23.72c-4.062,0-7.185-2.67-7.185-7.157c0-4.486,2.953-7.355,7.439-7.355
		c4.231,0,7.07,2.925,7.07,7.128c0,5.054-3.605,7.383-7.298,7.383L58.293,23.72L58.293,23.72z M58.377,20.625
		c1.703,0,2.755-1.676,2.755-4.174c0-2.044-0.795-4.146-2.755-4.146c-2.045,0-2.839,2.102-2.839,4.174
		c0,2.357,0.993,4.146,2.811,4.146H58.377z"/>
	<path fill="#E60000" d="M26.629,47.434c-0.397-0.426-0.794-0.853-1.249-1.363c-1.25,0.966-2.982,1.676-5.254,1.676
		c-4.628,0-6.673-2.727-6.673-5.424c0-2.527,1.448-4.344,3.635-5.509v-0.084c-0.823-0.909-1.448-2.329-1.448-3.692
		c0-2.441,1.902-5.054,5.764-5.054c2.954,0,5.168,1.732,5.168,4.486c0,1.93-1.136,3.578-3.777,4.913v0.113
		c1.08,1.221,2.244,2.614,3.18,3.578c0.767-1.192,1.364-2.953,1.619-4.658h3.861c-0.51,2.896-1.476,5.367-3.18,7.269
		c1.08,1.221,2.187,2.471,3.379,3.749H26.629L26.629,47.434z M20.751,44.622c1.107,0,2.044-0.426,2.613-0.965
		c-1.193-1.166-2.754-2.926-4.316-4.686c-0.796,0.567-1.534,1.391-1.534,2.641c0,1.647,1.22,3.01,3.209,3.01H20.751z M21.233,30.68
		c-1.107,0-1.703,0.938-1.703,1.959c0,0.965,0.426,1.817,1.306,2.755c1.392-0.965,2.101-1.704,2.101-2.812
		c0-0.908-0.54-1.901-1.675-1.901L21.233,30.68L21.233,30.68z"/>
	<path fill="#E60000" d="M33.699,28.579c1.392-0.255,3.437-0.426,5.764-0.426c2.84,0,4.828,0.426,6.19,1.533
		c1.166,0.909,1.789,2.244,1.789,4.004c0,2.414-1.731,4.089-3.378,4.686v0.084c1.335,0.54,2.072,1.79,2.556,3.55
		c0.597,2.186,1.164,4.685,1.532,5.424h-4.428c-0.285-0.54-0.768-2.102-1.308-4.459c-0.539-2.414-1.362-3.038-3.15-3.066h-1.28
		v7.525h-4.288L33.699,28.579L33.699,28.579z M37.986,36.785h1.704c2.157,0,3.435-1.078,3.435-2.754c0-1.732-1.191-2.641-3.18-2.641
		c-1.052,0-1.647,0.056-1.959,0.141V36.785z"/>
	<path fill="#E60000" d="M54.888,47.434l-6.136-19.139h4.741l2.329,8.093c0.654,2.3,1.25,4.458,1.704,6.842h0.086
		c0.481-2.299,1.077-4.572,1.731-6.757l2.441-8.177h4.601l-6.446,19.139L54.888,47.434L54.888,47.434z"/>
</g>
<rect y="51.5" fill="#E60000" width="72" height="20.5"/>
<g>
	<path fill="#FFFFFF" d="M4.667,65.48l-2.08-8.764h2.119l0.663,3.602c0.195,1.054,0.377,2.185,0.52,3.082h0.026
		c0.143-0.963,0.351-2.017,0.572-3.107l0.741-3.575h2.106l0.702,3.692c0.195,1.027,0.338,1.963,0.468,2.938h0.026
		c0.13-0.975,0.325-2.002,0.507-3.055l0.715-3.575h2.015l-2.262,8.763H9.361L8.62,61.71c-0.169-0.884-0.312-1.703-0.416-2.704H8.178
		c-0.156,0.988-0.299,1.82-0.507,2.704L6.839,65.48H4.667z"/>
	<path fill="#FFFFFF" d="M20.008,61.775h-3.224v2.08h3.601v1.625h-5.577v-8.764h5.395v1.625h-3.419v1.819h3.224V61.775z"/>
	<path fill="#FFFFFF" d="M21.736,56.848c0.52-0.104,1.56-0.195,2.561-0.195c1.209,0,1.95,0.117,2.587,0.494
		c0.611,0.326,1.04,0.924,1.04,1.729c0,0.767-0.455,1.481-1.43,1.858v0.025c1.001,0.262,1.742,1.027,1.742,2.158
		c0,0.807-0.364,1.432-0.91,1.857c-0.637,0.509-1.703,0.793-3.445,0.793c-0.975,0-1.703-0.063-2.145-0.129V56.848z M23.7,60.189
		h0.65c1.053,0,1.599-0.431,1.599-1.08c0-0.662-0.507-1.014-1.404-1.014c-0.442,0-0.689,0.024-0.845,0.063V60.189z M23.7,64.076
		c0.195,0.039,0.429,0.039,0.767,0.039c0.897,0,1.69-0.352,1.69-1.274c0-0.884-0.793-1.235-1.781-1.235H23.7V64.076z"/>
	<path fill="#FFFFFF" d="M33.413,58.382h-2.366v-1.664h6.734v1.664h-2.392v7.099h-1.976V58.382z"/>
	<path fill="#FFFFFF" d="M42.178,65.623c-2.588,0-4.121-1.963-4.121-4.459c0-2.627,1.689-4.59,4.264-4.59
		c2.691,0,4.16,2.016,4.16,4.434c0,2.887-1.729,4.615-4.291,4.615H42.178z M42.268,64.05c1.34,0,2.107-1.261,2.107-2.978
		c0-1.572-0.742-2.926-2.107-2.926s-2.131,1.326-2.131,2.965c0,1.65,0.793,2.938,2.119,2.938L42.268,64.05L42.268,64.05z"/>
	<path fill="#FFFFFF" d="M51.498,65.623c-2.586,0-4.121-1.963-4.121-4.459c0-2.627,1.691-4.59,4.264-4.59
		c2.691,0,4.16,2.016,4.16,4.434c0,2.887-1.729,4.615-4.289,4.615H51.498z M51.59,64.05c1.338,0,2.105-1.261,2.105-2.978
		c0-1.572-0.74-2.926-2.105-2.926s-2.133,1.326-2.133,2.965c0,1.65,0.793,2.938,2.119,2.938L51.59,64.05L51.59,64.05z"/>
	<path fill="#FFFFFF" d="M57.115,56.718h1.975v7.099h3.484v1.664h-5.459V56.718z"/>
	<path fill="#FFFFFF" d="M63.809,63.452c0.521,0.272,1.354,0.546,2.197,0.546c0.91,0,1.391-0.377,1.391-0.962
		c0-0.533-0.416-0.858-1.469-1.222c-1.455-0.521-2.418-1.326-2.418-2.613c0-1.496,1.262-2.627,3.316-2.627
		c1,0,1.715,0.195,2.234,0.441l-0.441,1.586c-0.338-0.168-0.975-0.416-1.82-0.416c-0.857,0-1.273,0.403-1.273,0.846
		c0,0.56,0.48,0.807,1.625,1.248c1.548,0.572,2.263,1.379,2.263,2.627c0,1.469-1.117,2.717-3.522,2.717
		c-1,0-1.988-0.273-2.482-0.546L63.809,63.452z"/>
</g>
<g>
	<path fill="#E60000" d="M71,1v70H1V1H71 M72,0H0v72h72V0L72,0z"/>
</g>
</svg>
